<svg width="371" height="371" viewBox="0 0 371 371" fill="none" xmlns="http://www.w3.org/2000/svg">
<rect width="371" height="371" fill="black"/>
<path d="M139.25 143.312L139.938 171.562H137.375C136.167 164.479 133.188 158.792 128.438 154.5C123.729 150.167 118.625 148 113.125 148C108.875 148 105.5 149.146 103 151.438C100.542 153.688 99.3125 156.292 99.3125 159.25C99.3125 161.125 99.75 162.792 100.625 164.25C101.833 166.208 103.771 168.146 106.438 170.062C108.396 171.438 112.917 173.875 120 177.375C129.917 182.25 136.604 186.854 140.062 191.188C143.479 195.521 145.188 200.479 145.188 206.062C145.188 213.146 142.417 219.25 136.875 224.375C131.375 229.458 124.375 232 115.875 232C113.208 232 110.688 231.729 108.312 231.188C105.938 230.646 102.958 229.625 99.375 228.125C97.375 227.292 95.7292 226.875 94.4375 226.875C93.3542 226.875 92.2083 227.292 91 228.125C89.7917 228.958 88.8125 230.229 88.0625 231.938H85.75V199.938H88.0625C89.8958 208.938 93.4167 215.812 98.625 220.562C103.875 225.271 109.521 227.625 115.562 227.625C120.229 227.625 123.938 226.354 126.688 223.812C129.479 221.271 130.875 218.312 130.875 214.938C130.875 212.938 130.333 211 129.25 209.125C128.208 207.25 126.604 205.479 124.438 203.812C122.271 202.104 118.438 199.896 112.938 197.188C105.229 193.396 99.6875 190.167 96.3125 187.5C92.9375 184.833 90.3333 181.854 88.5 178.562C86.7083 175.271 85.8125 171.646 85.8125 167.688C85.8125 160.938 88.2917 155.188 93.25 150.438C98.2083 145.688 104.458 143.312 112 143.312C114.75 143.312 117.417 143.646 120 144.312C121.958 144.812 124.333 145.75 127.125 147.125C129.958 148.458 131.938 149.125 133.062 149.125C134.146 149.125 135 148.792 135.625 148.125C136.25 147.458 136.833 145.854 137.375 143.312H139.25ZM210.5 143.312L211.188 171.562H208.625C207.417 164.479 204.438 158.792 199.688 154.5C194.979 150.167 189.875 148 184.375 148C180.125 148 176.75 149.146 174.25 151.438C171.792 153.688 170.562 156.292 170.562 159.25C170.562 161.125 171 162.792 171.875 164.25C173.083 166.208 175.021 168.146 177.688 170.062C179.646 171.438 184.167 173.875 191.25 177.375C201.167 182.25 207.854 186.854 211.312 191.188C214.729 195.521 216.438 200.479 216.438 206.062C216.438 213.146 213.667 219.25 208.125 224.375C202.625 229.458 195.625 232 187.125 232C184.458 232 181.938 231.729 179.562 231.188C177.188 230.646 174.208 229.625 170.625 228.125C168.625 227.292 166.979 226.875 165.688 226.875C164.604 226.875 163.458 227.292 162.25 228.125C161.042 228.958 160.062 230.229 159.312 231.938H157V199.938H159.312C161.146 208.938 164.667 215.812 169.875 220.562C175.125 225.271 180.771 227.625 186.812 227.625C191.479 227.625 195.188 226.354 197.938 223.812C200.729 221.271 202.125 218.312 202.125 214.938C202.125 212.938 201.583 211 200.5 209.125C199.458 207.25 197.854 205.479 195.688 203.812C193.521 202.104 189.688 199.896 184.188 197.188C176.479 193.396 170.938 190.167 167.562 187.5C164.188 184.833 161.583 181.854 159.75 178.562C157.958 175.271 157.062 171.646 157.062 167.688C157.062 160.938 159.542 155.188 164.5 150.438C169.458 145.688 175.708 143.312 183.25 143.312C186 143.312 188.667 143.646 191.25 144.312C193.208 144.812 195.583 145.75 198.375 147.125C201.208 148.458 203.188 149.125 204.312 149.125C205.396 149.125 206.25 148.792 206.875 148.125C207.5 147.458 208.083 145.854 208.625 143.312H210.5ZM281.75 143.312L282.438 171.562H279.875C278.667 164.479 275.688 158.792 270.938 154.5C266.229 150.167 261.125 148 255.625 148C251.375 148 248 149.146 245.5 151.438C243.042 153.688 241.812 156.292 241.812 159.25C241.812 161.125 242.25 162.792 243.125 164.25C244.333 166.208 246.271 168.146 248.938 170.062C250.896 171.438 255.417 173.875 262.5 177.375C272.417 182.25 279.104 186.854 282.562 191.188C285.979 195.521 287.688 200.479 287.688 206.062C287.688 213.146 284.917 219.25 279.375 224.375C273.875 229.458 266.875 232 258.375 232C255.708 232 253.188 231.729 250.812 231.188C248.438 230.646 245.458 229.625 241.875 228.125C239.875 227.292 238.229 226.875 236.938 226.875C235.854 226.875 234.708 227.292 233.5 228.125C232.292 228.958 231.312 230.229 230.562 231.938H228.25V199.938H230.562C232.396 208.938 235.917 215.812 241.125 220.562C246.375 225.271 252.021 227.625 258.062 227.625C262.729 227.625 266.438 226.354 269.188 223.812C271.979 221.271 273.375 218.312 273.375 214.938C273.375 212.938 272.833 211 271.75 209.125C270.708 207.25 269.104 205.479 266.938 203.812C264.771 202.104 260.938 199.896 255.438 197.188C247.729 193.396 242.188 190.167 238.812 187.5C235.438 184.833 232.833 181.854 231 178.562C229.208 175.271 228.312 171.646 228.312 167.688C228.312 160.938 230.792 155.188 235.75 150.438C240.708 145.688 246.958 143.312 254.5 143.312C257.25 143.312 259.917 143.646 262.5 144.312C264.458 144.812 266.833 145.75 269.625 147.125C272.458 148.458 274.438 149.125 275.562 149.125C276.646 149.125 277.5 148.792 278.125 148.125C278.75 147.458 279.333 145.854 279.875 143.312H281.75Z" fill="white"/>
</svg>
