<svg xmlns="http://www.w3.org/2000/svg" viewBox="0 0 100 100"><path fill="#5E6AD2" d="M1.22 61.5a48.5 48.5 0 0 0 37.28 37.28L1.22 61.5zM.03 46.56a49.9 49.9 0 0 0 .57 6.53l52.84-52.84a49.9 49.9 0 0 0-6.53-.57L.03 46.56zm-0.03-8.01 53.48-53.48a49.7 49.7 0 0 0-6.88-.97L0 38.55zm0-15.42L38.13 0l-6.58.01L0 31.55 0 23.13zm0-15.41L15.72 0H0v7.72zM99.97 53.44a49.9 49.9 0 0 0-.57-6.53L46.56 99.75c2.14.41 4.32.63 6.53.57L99.97 53.44zm0 8.01L46.56 99.97l7.43-.01 45.98-45.98v-1.51 8.98zm0 15.42L61.87 100h6.58l31.55-31.55-.03 8.42zm0 15.41L84.28 100H100V92.28z"/></svg>