<svg xmlns="http://www.w3.org/2000/svg" viewBox="0 0 400 400"><path fill="#00DC82" d="M227.3 321.7H45.3c-4.4 0-8.7-1.2-12.5-3.4-3.8-2.2-6.9-5.4-9-9.2-2.1-3.8-3.2-8.1-3.2-12.5s1.1-8.7 3.2-12.5L134.9 99.5c2.1-3.8 5.2-6.9 9-9.2 3.8-2.2 8.1-3.4 12.5-3.4s8.7 1.2 12.5 3.4c3.8 2.2 6.9 5.4 9 9.2l28.4 49.2 56.4-97.8c2.1-3.8 5.2-6.9 9-9.2 3.8-2.2 8.1-3.4 12.5-3.4s8.7 1.2 12.5 3.4c3.8 2.2 6.9 5.4 9 9.2l111.1 192.6c2.1 3.8 3.2 8.1 3.2 12.5s-1.1 8.7-3.2 12.5c-2.1 3.8-5.2 6.9-9 9.2-3.8 2.2-8.1 3.4-12.5 3.4H284.2c-35.5 0-61.8-15.5-79.7-46.3l-48.2-83.4-28.3 49 48.2 83.5c2.3 4 3.5 8.1 3.5 12.5s-1.2 8.5-3.5 12.5c-2.3 4-5.5 7.2-9.5 9.5-4 2.3-8.5 3.5-13.2 3.5z"/></svg>